<svg width="60" height="80" viewBox="0 0 60 80" xmlns="http://www.w3.org/2000/svg">
  <defs>
    <linearGradient id="leafGrad" x1="0%" y1="0%" x2="100%" y2="100%">
      <stop offset="0%" style="stop-color:#8D6E63;stop-opacity:1" />
      <stop offset="50%" style="stop-color:#5D4037;stop-opacity:1" />
      <stop offset="100%" style="stop-color:#3E2723;stop-opacity:1" />
    </linearGradient>
    <radialGradient id="leafShine" cx="40%" cy="30%">
      <stop offset="0%" style="stop-color:#A1887F;stop-opacity:0.5" />
      <stop offset="100%" style="stop-color:#5D4037;stop-opacity:0" />
    </radialGradient>
  </defs>
  <g>
    <!-- Основная форма листа -->
    <path d="M 30 5 Q 10 15 5 40 Q 10 65 30 75 Q 50 65 55 40 Q 50 15 30 5 Z" 
          fill="url(#leafGrad)" stroke="#3E2723" stroke-width="1.5" stroke-linejoin="round"/>
    
    <!-- Центральная жилка -->
    <line x1="30" y1="5" x2="30" y2="75" stroke="#A1887F" stroke-width="1.2" opacity="0.6" stroke-linecap="round"/>
    
    <!-- Боковые жилки -->
    <path d="M 30 20 Q 20 25 15 30" stroke="#A1887F" stroke-width="0.8" fill="none" opacity="0.5" stroke-linecap="round"/>
    <path d="M 30 20 Q 40 25 45 30" stroke="#A1887F" stroke-width="0.8" fill="none" opacity="0.5" stroke-linecap="round"/>
    <path d="M 30 40 Q 22 45 18 50" stroke="#A1887F" stroke-width="0.8" fill="none" opacity="0.5" stroke-linecap="round"/>
    <path d="M 30 40 Q 38 45 42 50" stroke="#A1887F" stroke-width="0.8" fill="none" opacity="0.5" stroke-linecap="round"/>
    <path d="M 30 60 Q 24 65 20 70" stroke="#A1887F" stroke-width="0.8" fill="none" opacity="0.5" stroke-linecap="round"/>
    <path d="M 30 60 Q 36 65 40 70" stroke="#A1887F" stroke-width="0.8" fill="none" opacity="0.5" stroke-linecap="round"/>
    
    <!-- Блеск -->
    <ellipse cx="25" cy="25" rx="12" ry="20" fill="url(#leafShine)"/>
  </g>
</svg>
